<svg xmlns="http://www.w3.org/2000/svg" data-icon-name="icon-tabler-mongodb" width="24" height="24" viewBox="0 0 12 24" fill="currentColor">
    <path d="M 7.5 2.5 C 6.5 1.4 5.7 0.2 5.5 0 C 5.5 0 5.4 0 5.4 0 C 5.2 0.2 4.4 1.4 3.4 2.5 C -5 13 4.7 20.1 4.7 20.1 L 4.8 20.2 C 4.9 21.3 5.1 22.9 5.1 22.9 L 5.8 22.9 C 5.8 22.9 6 21.3 6.1 20.2 L 6.1 20.1 C 6.2 20.1 16 13 7.5 2.5 Z M 5.4 20 C 5.4 20 5 19.6 4.9 19.4 L 4.9 19.4 L 5.4 7.9 C 5.4 7.9 5.5 7.9 5.5 7.9 L 6 19.4 L 6 19.4 C 5.9 19.6 5.4 20 5.4 20 Z M 5.4 20"/>
</svg>
